<svg id="Layer_1" data-name="Layer 1" xmlns="http://www.w3.org/2000/svg" viewBox="0 0 1366 1366"><defs><style>.cls-1{fill:#187bcd;}.cls-2{fill:#333;}.cls-3{fill:#2a9df4;}</style></defs><title>MutecLogo</title><path class="cls-1" d="M991.85,438.77C1094.38,474.26,1168,571.66,1168,686.26c0,144.62-117.22,261.84-261.84,261.84A261.67,261.67,0,0,1,682.93,823.17V810.84A260.42,260.42,0,0,0,718,689.28C719.72,791.58,803.19,874,905.91,874c103.8,0,187.95-84.16,187.95-188,0-93.87-68.85-171.7-158.81-185.7A188.64,188.64,0,0,0,991.85,438.77Z"/><path class="cls-1" d="M1005.88,613.89a11.48,11.48,0,1,1-11.33,11.48A11.41,11.41,0,0,1,1005.88,613.89Z"/><path class="cls-1" d="M986.11,703.58a18,18,0,1,1-17.78,18A17.88,17.88,0,0,1,986.11,703.58Z"/><path class="cls-1" d="M959.25,637.65a26.87,26.87,0,1,1-26.52,26.86A26.69,26.69,0,0,1,959.25,637.65Z"/><path class="cls-1" d="M991.85,438.77a188.64,188.64,0,0,1-56.8,61.57,189.09,189.09,0,0,0-29.14-2.25,187,187,0,0,0-106.36,33,186.67,186.67,0,0,1-77.53-31,262.2,262.2,0,0,1,269.83-61.33Z"/><path class="cls-1" d="M937.43,740a37,37,0,0,1,0,74c-20.19,0-36.54-16.58-36.54-37A36.77,36.77,0,0,1,937.43,740Z"/><path class="cls-1" d="M935.6,703a11.48,11.48,0,1,1-11.33,11.48A11.43,11.43,0,0,1,935.6,703Z"/><ellipse class="cls-1" cx="925.68" cy="595.69" rx="11.33" ry="11.48"/><path class="cls-1" d="M891.74,646.05A18,18,0,1,1,874,664,17.88,17.88,0,0,1,891.74,646.05Z"/><path class="cls-1" d="M870.34,701.35a26.87,26.87,0,1,1-26.52,26.86A26.68,26.68,0,0,1,870.34,701.35Z"/><path class="cls-1" d="M855,563.6c20.19,0,36.55,16.58,36.55,37a36.55,36.55,0,1,1-73.09,0C818.5,580.18,834.86,563.6,855,563.6Z"/><ellipse class="cls-1" cx="861.9" cy="790.39" rx="11.33" ry="11.48"/><path class="cls-1" d="M835.33,653.23A11.48,11.48,0,1,1,824,664.71,11.4,11.4,0,0,1,835.33,653.23Z"/><ellipse class="cls-1" cx="818.26" cy="714.86" rx="11.33" ry="11.48"/><path class="cls-1" d="M784.54,657.86a18,18,0,1,1-17.76,18A17.89,17.89,0,0,1,784.54,657.86Z"/><path class="cls-1" d="M718.16,677.52c-.14,2.82-.2,5.67-.2,8.52,0,1.09,0,2.17,0,3.24a260.42,260.42,0,0,1-35.08,121.56V549.35c.1-.18.22-.35.32-.54A260.45,260.45,0,0,1,718.16,677.52Z"/><path class="cls-2" d="M683.25,548.81c-.1.19-.22.36-.32.54v-1.09C683.05,548.44,683.15,548.63,683.25,548.81Z"/><path class="cls-3" d="M682.93,810.84v12.33q-1.89-3-3.68-6.17C680.49,815,681.74,812.92,682.93,810.84Z"/><path class="cls-3" d="M682.93,549.35V810.84c-1.19,2.08-2.44,4.12-3.68,6.16a260.57,260.57,0,0,1-34.93-130.74c0-1.74,0-3.51,0-5.25A260.58,260.58,0,0,1,682.93,549.35Z"/><path class="cls-3" d="M682.93,548.26v1.09A260.58,260.58,0,0,0,644.37,681h-.26c0-103.81-84.16-188-188-188S268.2,577.2,268.2,681a188,188,0,0,0,147.62,183.6,188.75,188.75,0,0,0-55.39,58.65C263.27,885,194.5,790.31,194.5,679.55c0-144.62,117.22-261.84,261.84-261.84A261.7,261.7,0,0,1,682.93,548.26Z"/><path class="cls-3" d="M561.93,836.38a186.67,186.67,0,0,1,73.57,34.11,262.18,262.18,0,0,1-275.07,52.77,188.75,188.75,0,0,1,55.39-58.65,188.3,188.3,0,0,0,146.11-28.23Z"/><path class="cls-3" d="M540.19,614a105.19,105.19,0,0,1,20.21,62.25c0,57.94-46.37,104.92-103.58,104.92s-103.56-47-103.56-104.92,46.36-104.9,103.56-104.9A101.75,101.75,0,0,1,479,573.75a37.11,37.11,0,0,0,29.54,58.8A36.4,36.4,0,0,0,540.19,614Zm-81.08,11.29A17.12,17.12,0,1,0,442,642.62,17.23,17.23,0,0,0,459.11,625.28Z"/></svg>